<?xml version="1.0" encoding="utf-8"?>
<!-- Generator: Adobe Illustrator 15.0.0, SVG Export Plug-In . SVG Version: 6.00 Build 0)  -->
<!DOCTYPE svg PUBLIC "-//W3C//DTD SVG 1.1//EN" "http://www.w3.org/Graphics/SVG/1.1/DTD/svg11.dtd">
<svg version="1.1" id="Layer_1" xmlns="http://www.w3.org/2000/svg" xmlns:xlink="http://www.w3.org/1999/xlink" x="0px" y="0px"
	 width="300px" height="200px" viewBox="0 0 300 200" enable-background="new 0 0 300 200" xml:space="preserve">
<circle fill="#F68720" cx="28.3" cy="37.022" r="3.044"/>
<circle fill="#F68720" cx="20.038" cy="33.326" r="3.043"/>
<circle fill="#F68720" cx="37.104" cy="33.326" r="3.043"/>
<circle fill="#F68720" cx="28.3" cy="13.978" r="3.043"/>
<circle fill="#F68720" cx="36.561" cy="17.565" r="3.043"/>
<circle fill="#F68720" cx="40.257" cy="25.5" r="3.043"/>
<circle fill="#F68720" cx="16.343" cy="25.5" r="3.043"/>
<circle fill="#F68720" cx="19.495" cy="17.565" r="3.043"/>
<circle fill="#F68720" cx="28.3" cy="25.392" r="6.521"/>
<circle fill="#F68720" cx="66.689" cy="35.88" r="3.36"/>
<circle fill="#F68720" cx="57.689" cy="31.801" r="3.36"/>
<circle fill="#F68720" cx="76.41" cy="31.801" r="3.36"/>
<circle fill="#F68720" cx="79.89" cy="23.16" r="3.36"/>
<circle fill="#F68720" cx="53.609" cy="23.16" r="3.36"/>
<circle fill="#F68720" cx="66.689" cy="23.16" r="7.2"/>
<path fill="#F68720" d="M100.714,28.353v7.248c0,0.768-0.549,1.317-1.317,1.317h-3.625c-0.878,0-1.647,0.769-1.647,1.647
	c0,0.879,0.769,1.647,1.647,1.647h13.288c0.878,0,1.647-0.768,1.647-1.647c0-0.879-0.769-1.647-1.647-1.647h-3.624
	c-0.769,0-1.318-0.549-1.318-1.317v-7.248l5.38-5.38c1.318,0.879,2.855,1.428,4.612,1.428c4.392,0,7.893-3.514,7.893-7.906
	c0-4.393-3.5-7.907-7.893-7.907c-4.187,0-7.576,3.185-7.907,7.248H91.6c-0.769,0-1.318,0.549-1.318,1.318
	c0,0.329,0.111,0.659,0.435,0.988L100.714,28.353z M111.806,20.557l2.416-2.526c0.219-0.219,0.438-0.549,0.438-0.988
	c0-0.769-0.549-1.318-1.318-1.318h-3.958c0.343-2.196,2.311-3.953,4.612-3.953c2.525,0,4.612,2.086,4.612,4.611
	c0,2.526-2.087,4.612-4.612,4.612C113.124,21.106,112.354,20.886,111.806,20.557z"/>
<circle fill="#F68720" cx="135.5" cy="14.2" r="3.3"/>
<circle fill="#F68720" cx="153.1" cy="14.2" r="3.3"/>
<circle fill="#F68720" cx="144.3" cy="14.2" r="3.3"/>
<circle fill="#F68720" cx="135.5" cy="23.1" r="3.3"/>
<circle fill="#F68720" cx="153.1" cy="23.1" r="3.3"/>
<circle fill="#F68720" cx="144.3" cy="23.1" r="3.3"/>
<circle fill="#F68720" cx="135.5" cy="32" r="3.3"/>
<circle fill="#F68720" cx="153.1" cy="32" r="3.3"/>
<circle fill="#F68720" cx="144.3" cy="32" r="3.3"/>
<circle fill="#F68720" cx="135.5" cy="40.6" r="3.3"/>
<circle fill="#F68720" cx="153.1" cy="40.6" r="3.3"/>
<circle fill="#F68720" cx="144.3" cy="40.6" r="3.3"/>
<circle fill="#F68720" cx="171.6" cy="18.2" r="3.3"/>
<circle fill="#F68720" cx="179.8" cy="18.2" r="3.3"/>
<circle fill="#F68720" cx="188" cy="18.2" r="3.3"/>
<circle fill="#F68720" cx="196.199" cy="18.2" r="3.3"/>
<rect x="168.399" y="22.7" fill="#F68720" width="31.101" height="3"/>
<circle fill="#F68720" cx="171.6" cy="31" r="3.3"/>
<circle fill="#F68720" cx="179.8" cy="31" r="3.3"/>
<circle fill="#F68720" cx="188" cy="31" r="3.3"/>
<circle fill="#F68720" cx="196.199" cy="31" r="3.3"/>
<rect x="168.399" y="35.5" fill="#F68720" width="31.101" height="3"/>
<rect x="217.399" y="17.9" fill="#F68720" width="11.688" height="21.3"/>
<circle fill="#F68720" cx="223.3" cy="13.1" r="3"/>
<circle fill="#F68720" cx="212.5" cy="20.8" r="3"/>
<circle fill="#F68720" cx="212.5" cy="28.3" r="3"/>
<circle fill="#F68720" cx="212.5" cy="36.2" r="3"/>
<circle fill="#F68720" cx="234" cy="20.8" r="3"/>
<circle fill="#F68720" cx="234" cy="28.3" r="3"/>
<circle fill="#F68720" cx="234" cy="36.2" r="3"/>
<circle fill="#F68720" cx="223.3" cy="43.9" r="3"/>
<path fill="#F68720" d="M279.199,15.2H273h-15.801H251.5h-0.7v27.7h0.7h5.699H273h6.199h0.2V15.2H279.199z M257.199,36.5V21.6H273
	v14.9H257.199z"/>
<circle fill="#F68720" cx="257.6" cy="12.1" r="1.9"/>
<circle fill="#F68720" cx="262.6" cy="12.1" r="1.9"/>
<circle fill="#F68720" cx="267.5" cy="12.1" r="1.9"/>
<circle fill="#F68720" cx="272.399" cy="12.1" r="1.9"/>
<circle fill="#F68720" cx="282.399" cy="21.7" r="1.9"/>
<circle fill="#F68720" cx="282.399" cy="26.6" r="1.9"/>
<circle fill="#F68720" cx="282.399" cy="31.5" r="1.9"/>
<circle fill="#F68720" cx="282.399" cy="36.5" r="1.9"/>
<circle fill="#F68720" cx="247.699" cy="21.7" r="1.9"/>
<circle fill="#F68720" cx="247.699" cy="26.6" r="1.9"/>
<circle fill="#F68720" cx="247.699" cy="31.5" r="1.9"/>
<circle fill="#F68720" cx="247.699" cy="36.5" r="1.9"/>
<circle fill="#F68720" cx="257.6" cy="46" r="1.9"/>
<circle fill="#F68720" cx="262.6" cy="46" r="1.9"/>
<circle fill="#F68720" cx="267.5" cy="46" r="1.9"/>
<circle fill="#F68720" cx="272.399" cy="46" r="1.9"/>
<circle fill="#F68720" cx="28.3" cy="86.4" r="2.8"/>
<circle fill="#F68720" cx="20.699" cy="83" r="2.8"/>
<circle fill="#F68720" cx="36.399" cy="83" r="2.8"/>
<circle fill="#F68720" cx="28.3" cy="65.2" r="2.8"/>
<circle fill="#F68720" cx="35.899" cy="68.5" r="2.8"/>
<circle fill="#F68720" cx="39.3" cy="75.8" r="2.8"/>
<circle fill="#F68720" cx="17.3" cy="75.8" r="2.8"/>
<circle fill="#F68720" cx="20.199" cy="68.5" r="2.8"/>
<circle fill="#F68720" cx="28.3" cy="75.7" r="6"/>
<circle fill="#F68720" cx="66.695" cy="85.427" r="3.054"/>
<circle fill="#F68720" cx="58.513" cy="81.718" r="3.055"/>
<circle fill="#F68720" cx="75.532" cy="81.718" r="3.055"/>
<circle fill="#F68720" cx="78.695" cy="73.863" r="3.055"/>
<circle fill="#F68720" cx="54.804" cy="73.863" r="3.055"/>
<circle fill="#F68720" cx="66.695" cy="73.864" r="6.546"/>
<path fill="#F68720" d="M101.199,78.3V84.9c0,0.699-0.5,1.199-1.199,1.199h-3.301c-0.8,0-1.5,0.7-1.5,1.5c0,0.801,0.7,1.5,1.5,1.5
	H108.8c0.8,0,1.5-0.699,1.5-1.5c0-0.8-0.7-1.5-1.5-1.5h-3.3c-0.7,0-1.2-0.5-1.2-1.199V78.3l4.899-4.9c1.2,0.8,2.601,1.3,4.2,1.3
	c4,0,7.188-3.2,7.188-7.2s-3.188-7.2-7.188-7.2c-3.813,0-6.899,2.9-7.2,6.6h-13.3c-0.7,0-1.2,0.5-1.2,1.2c0,0.3,0.101,0.6,0.396,0.9
	L101.199,78.3z M111.3,71.2l2.2-2.3c0.199-0.2,0.399-0.5,0.399-0.9c0-0.7-0.5-1.2-1.2-1.2h-3.604c0.313-2,2.104-3.6,4.2-3.6
	c2.3,0,4.2,1.9,4.2,4.2c0,2.3-1.9,4.2-4.2,4.2C112.5,71.7,111.8,71.5,111.3,71.2z"/>
<circle fill="#F68720" cx="136.3" cy="65.7" r="3"/>
<circle fill="#F68720" cx="152.299" cy="65.7" r="3"/>
<circle fill="#F68720" cx="144.3" cy="65.7" r="3"/>
<circle fill="#F68720" cx="136.3" cy="73.791" r="3"/>
<circle fill="#F68720" cx="152.299" cy="73.791" r="3"/>
<circle fill="#F68720" cx="144.3" cy="73.791" r="3"/>
<circle fill="#F68720" cx="136.3" cy="81.882" r="3"/>
<circle fill="#F68720" cx="152.299" cy="81.882" r="3"/>
<circle fill="#F68720" cx="144.3" cy="81.882" r="3"/>
<circle fill="#F68720" cx="136.3" cy="89.699" r="3"/>
<circle fill="#F68720" cx="152.299" cy="89.699" r="3"/>
<circle fill="#F68720" cx="144.3" cy="89.699" r="3"/>
<circle fill="#F68720" cx="172.468" cy="69.099" r="3.067"/>
<circle fill="#F68720" cx="180.09" cy="69.099" r="3.067"/>
<circle fill="#F68720" cx="187.71" cy="69.099" r="3.067"/>
<circle fill="#F68720" cx="195.331" cy="69.099" r="3.067"/>
<rect x="169.493" y="73.283" fill="#F68720" width="28.907" height="2.788"/>
<circle fill="#F68720" cx="172.468" cy="80.996" r="3.067"/>
<circle fill="#F68720" cx="180.09" cy="80.996" r="3.067"/>
<circle fill="#F68720" cx="187.71" cy="80.996" r="3.067"/>
<circle fill="#F68720" cx="195.331" cy="80.996" r="3.067"/>
<rect x="169.493" y="85.179" fill="#F68720" width="28.907" height="2.789"/>
<rect x="218.145" y="69.55" fill="#F68720" width="10.199" height="18.588"/>
<circle fill="#F68720" cx="223.293" cy="65.36" r="2.618"/>
<circle fill="#F68720" cx="213.869" cy="72.08" r="2.618"/>
<circle fill="#F68720" cx="213.869" cy="78.625" r="2.618"/>
<circle fill="#F68720" cx="213.869" cy="85.52" r="2.618"/>
<circle fill="#F68720" cx="232.631" cy="72.08" r="2.618"/>
<circle fill="#F68720" cx="232.631" cy="78.625" r="2.618"/>
<circle fill="#F68720" cx="232.631" cy="85.52" r="2.618"/>
<circle fill="#F68720" cx="223.293" cy="92.24" r="2.618"/>
<path fill="#F68720" d="M277.913,66.759h-5.636h-14.364h-5.182h-0.637v25.182h0.637h5.182h14.364h5.636h0.182V66.759H277.913z
	 M257.913,86.123V72.577h14.364v13.545H257.913z"/>
<circle fill="#F68720" cx="258.276" cy="63.941" r="1.727"/>
<circle fill="#F68720" cx="262.822" cy="63.941" r="1.727"/>
<circle fill="#F68720" cx="267.277" cy="63.941" r="1.727"/>
<circle fill="#F68720" cx="271.731" cy="63.941" r="1.727"/>
<circle fill="#F68720" cx="280.822" cy="72.668" r="1.727"/>
<circle fill="#F68720" cx="280.822" cy="77.123" r="1.727"/>
<circle fill="#F68720" cx="280.822" cy="81.577" r="1.727"/>
<circle fill="#F68720" cx="280.822" cy="86.123" r="1.727"/>
<circle fill="#F68720" cx="249.276" cy="72.668" r="1.727"/>
<circle fill="#F68720" cx="249.276" cy="77.123" r="1.727"/>
<circle fill="#F68720" cx="249.276" cy="81.577" r="1.727"/>
<circle fill="#F68720" cx="249.276" cy="86.123" r="1.727"/>
<circle fill="#F68720" cx="258.276" cy="94.759" r="1.727"/>
<circle fill="#F68720" cx="262.822" cy="94.759" r="1.727"/>
<circle fill="#F68720" cx="267.277" cy="94.759" r="1.727"/>
<circle fill="#F68720" cx="271.731" cy="94.759" r="1.727"/>
<circle fill="#F68720" cx="29.3" cy="136.481" r="2.029"/>
<circle fill="#F68720" cx="23.792" cy="134.017" r="2.029"/>
<circle fill="#F68720" cx="35.169" cy="134.017" r="2.029"/>
<circle fill="#F68720" cx="29.3" cy="121.119" r="2.029"/>
<circle fill="#F68720" cx="34.807" cy="123.51" r="2.029"/>
<circle fill="#F68720" cx="37.271" cy="128.8" r="2.029"/>
<circle fill="#F68720" cx="21.329" cy="128.8" r="2.029"/>
<circle fill="#F68720" cx="23.43" cy="123.51" r="2.029"/>
<circle fill="#F68720" cx="29.3" cy="128.728" r="4.348"/>
<circle fill="#F68720" cx="67.713" cy="135.918" r="2.037"/>
<circle fill="#F68720" cx="62.258" cy="133.446" r="2.037"/>
<circle fill="#F68720" cx="73.604" cy="133.446" r="2.037"/>
<circle fill="#F68720" cx="75.713" cy="128.209" r="2.037"/>
<circle fill="#F68720" cx="59.786" cy="128.209" r="2.037"/>
<circle fill="#F68720" cx="67.713" cy="128.209" r="4.364"/>
<path fill="#F68720" d="M103.72,130.192v4.569c0,0.484-0.346,0.83-0.83,0.83h-2.285c-0.554,0-1.039,0.485-1.039,1.039
	s0.485,1.039,1.039,1.039h8.377c0.554,0,1.038-0.485,1.038-1.039s-0.484-1.039-1.038-1.039h-2.285c-0.484,0-0.831-0.346-0.831-0.83
	v-4.569l3.392-3.393c0.832,0.555,1.801,0.9,2.908,0.9c2.77,0,4.976-2.216,4.976-4.984c0-2.771-2.207-4.986-4.976-4.986
	c-2.64,0-4.776,2.009-4.985,4.57h-9.208c-0.484,0-0.831,0.347-0.831,0.831c0,0.207,0.069,0.416,0.274,0.623L103.72,130.192z
	 M110.713,125.276l1.523-1.592c0.138-0.138,0.277-0.347,0.277-0.623c0-0.485-0.346-0.831-0.831-0.831h-2.496
	c0.217-1.385,1.458-2.492,2.909-2.492c1.592,0,2.908,1.314,2.908,2.908c0,1.593-1.316,2.906-2.908,2.906
	C111.544,125.622,111.06,125.484,110.713,125.276z"/>
<circle fill="#F68720" cx="139.846" cy="122.519" r="2.044"/>
<circle fill="#F68720" cx="150.754" cy="122.519" r="2.044"/>
<circle fill="#F68720" cx="145.3" cy="122.519" r="2.044"/>
<circle fill="#F68720" cx="139.846" cy="128.035" r="2.045"/>
<circle fill="#F68720" cx="150.754" cy="128.035" r="2.045"/>
<circle fill="#F68720" cx="145.3" cy="128.035" r="2.045"/>
<circle fill="#F68720" cx="139.846" cy="133.551" r="2.045"/>
<circle fill="#F68720" cx="150.754" cy="133.551" r="2.045"/>
<circle fill="#F68720" cx="145.3" cy="133.551" r="2.045"/>
<circle fill="#F68720" cx="139.846" cy="138.881" r="2.044"/>
<circle fill="#F68720" cx="150.754" cy="138.881" r="2.044"/>
<circle fill="#F68720" cx="145.3" cy="138.881" r="2.044"/>
<circle fill="#F68720" cx="177.016" cy="124.552" r="2.114"/>
<circle fill="#F68720" cx="182.272" cy="124.552" r="2.114"/>
<circle fill="#F68720" cx="187.527" cy="124.552" r="2.114"/>
<circle fill="#F68720" cx="192.783" cy="124.552" r="2.114"/>
<rect x="174.965" y="127.438" fill="#F68720" width="19.936" height="1.921"/>
<circle fill="#F68720" cx="177.016" cy="132.756" r="2.115"/>
<circle fill="#F68720" cx="182.272" cy="132.756" r="2.115"/>
<circle fill="#F68720" cx="187.527" cy="132.756" r="2.115"/>
<circle fill="#F68720" cx="192.783" cy="132.756" r="2.115"/>
<rect x="174.965" y="135.641" fill="#F68720" width="19.936" height="1.922"/>
<rect x="220.207" y="124.478" fill="#F68720" width="8.076" height="14.716"/>
<circle fill="#F68720" cx="224.285" cy="121.16" r="2.073"/>
<circle fill="#F68720" cx="216.824" cy="126.48" r="2.073"/>
<circle fill="#F68720" cx="216.824" cy="131.662" r="2.073"/>
<circle fill="#F68720" cx="216.824" cy="137.121" r="2.073"/>
<circle fill="#F68720" cx="231.676" cy="126.48" r="2.073"/>
<circle fill="#F68720" cx="231.676" cy="131.662" r="2.073"/>
<circle fill="#F68720" cx="231.676" cy="137.121" r="2.073"/>
<circle fill="#F68720" cx="224.285" cy="142.439" r="2.073"/>
<path fill="#F68720" d="M274.135,124.437h-3.542h-9.029h-3.257h-0.4v15.829h0.4h3.257h9.029h3.542h0.114v-15.829H274.135z
	 M261.563,136.607v-8.515h9.029v8.515H261.563z"/>
<circle fill="#F68720" cx="261.791" cy="122.664" r="1.085"/>
<circle fill="#F68720" cx="264.648" cy="122.664" r="1.085"/>
<circle fill="#F68720" cx="267.45" cy="122.664" r="1.085"/>
<circle fill="#F68720" cx="270.249" cy="122.664" r="1.085"/>
<circle fill="#F68720" cx="275.964" cy="128.15" r="1.086"/>
<circle fill="#F68720" cx="275.964" cy="130.95" r="1.085"/>
<circle fill="#F68720" cx="275.964" cy="133.75" r="1.085"/>
<circle fill="#F68720" cx="275.964" cy="136.607" r="1.085"/>
<circle fill="#F68720" cx="256.134" cy="128.15" r="1.086"/>
<circle fill="#F68720" cx="256.134" cy="130.95" r="1.085"/>
<circle fill="#F68720" cx="256.134" cy="133.75" r="1.085"/>
<circle fill="#F68720" cx="256.134" cy="136.607" r="1.085"/>
<circle fill="#F68720" cx="261.791" cy="142.036" r="1.085"/>
<circle fill="#F68720" cx="264.648" cy="142.036" r="1.085"/>
<circle fill="#F68720" cx="267.45" cy="142.036" r="1.085"/>
<circle fill="#F68720" cx="270.249" cy="142.036" r="1.085"/>
</svg>
